<?xml version="1.0" encoding="UTF-8" standalone="no"?>
<!DOCTYPE svg PUBLIC "-//W3C//DTD SVG 1.1//EN"
 "http://www.w3.org/Graphics/SVG/1.1/DTD/svg11.dtd">
<!-- Generated by graphviz version 5.0.0 (20220707.1540)
 -->
<!-- Title: dependencies Pages: 1 -->
<svg width="3928pt" height="174pt"
 viewBox="0.00 0.00 3928.00 173.80" xmlns="http://www.w3.org/2000/svg" xmlns:xlink="http://www.w3.org/1999/xlink">
<g id="graph0" class="graph" transform="scale(1 1) rotate(0) translate(4 169.8)">
<title>dependencies</title>
<polygon fill="white" stroke="transparent" points="-4,4 -4,-169.8 3924,-169.8 3924,4 -4,4"/>
<text text-anchor="middle" x="1960" y="-8.2" font-family="sans-serif" font-size="14.00">dependencies</text>
<g id="clust1" class="cluster">
<title>cluster_SystemModule</title>
<polygon fill="none" stroke="black" stroke-dasharray="1,5" points="8,-32.8 8,-157.8 3912,-157.8 3912,-32.8 8,-32.8"/>
</g>
<g id="clust24" class="cluster">
<title>cluster_SystemModule_imports</title>
<polygon fill="none" stroke="black" points="3742,-40.8 3742,-92.8 3904,-92.8 3904,-40.8 3742,-40.8"/>
</g>
<g id="clust2" class="cluster">
<title>cluster_SystemModule_declarations</title>
<polygon fill="none" stroke="black" points="16,-40.8 16,-92.8 3734,-92.8 3734,-40.8 16,-40.8"/>
</g>
<!-- AddStepPageComponent -->
<g id="node1" class="node">
<title>AddStepPageComponent</title>
<polygon fill="#ffffb3" stroke="black" points="3725.55,-84.8 3568.45,-84.8 3568.45,-48.8 3725.55,-48.8 3725.55,-84.8"/>
<text text-anchor="middle" x="3647" y="-62.6" font-family="Times,serif" font-size="14.00">AddStepPageComponent</text>
</g>
<!-- SystemModule -->
<g id="node22" class="node">
<title>SystemModule</title>
<polygon fill="#8dd3c7" stroke="black" points="1936.28,-149.8 1933.28,-153.8 1912.28,-153.8 1909.28,-149.8 1835.72,-149.8 1835.72,-113.8 1936.28,-113.8 1936.28,-149.8"/>
<text text-anchor="middle" x="1886" y="-127.6" font-family="Times,serif" font-size="14.00">SystemModule</text>
</g>
<!-- AddStepPageComponent&#45;&gt;SystemModule -->
<g id="edge1" class="edge">
<title>AddStepPageComponent&#45;&gt;SystemModule</title>
<path fill="none" stroke="black" d="M3647,-85.05C3647,-107.82 3647,-143.8 3647,-143.8 3647,-143.8 1946.33,-143.8 1946.33,-143.8"/>
<polygon fill="black" stroke="black" points="1946.33,-140.3 1936.33,-143.8 1946.33,-147.3 1946.33,-140.3"/>
</g>
<!-- AddWorkerPageComponent -->
<g id="node2" class="node">
<title>AddWorkerPageComponent</title>
<polygon fill="#ffffb3" stroke="black" points="3550.91,-84.8 3375.09,-84.8 3375.09,-48.8 3550.91,-48.8 3550.91,-84.8"/>
<text text-anchor="middle" x="3463" y="-62.6" font-family="Times,serif" font-size="14.00">AddWorkerPageComponent</text>
</g>
<!-- AddWorkerPageComponent&#45;&gt;SystemModule -->
<g id="edge2" class="edge">
<title>AddWorkerPageComponent&#45;&gt;SystemModule</title>
<path fill="none" stroke="black" d="M3463,-85.09C3463,-107.01 3463,-140.8 3463,-140.8 3463,-140.8 1946.68,-140.8 1946.68,-140.8"/>
<polygon fill="black" stroke="black" points="1946.68,-137.3 1936.68,-140.8 1946.68,-144.3 1946.68,-137.3"/>
</g>
<!-- AssignTaskComponent -->
<g id="node3" class="node">
<title>AssignTaskComponent</title>
<polygon fill="#ffffb3" stroke="black" points="3357.94,-84.8 3210.06,-84.8 3210.06,-48.8 3357.94,-48.8 3357.94,-84.8"/>
<text text-anchor="middle" x="3284" y="-62.6" font-family="Times,serif" font-size="14.00">AssignTaskComponent</text>
</g>
<!-- AssignTaskComponent&#45;&gt;SystemModule -->
<g id="edge3" class="edge">
<title>AssignTaskComponent&#45;&gt;SystemModule</title>
<path fill="none" stroke="black" d="M3284,-84.83C3284,-105.57 3284,-136.8 3284,-136.8 3284,-136.8 1946.58,-136.8 1946.58,-136.8"/>
<polygon fill="black" stroke="black" points="1946.58,-133.3 1936.58,-136.8 1946.58,-140.3 1946.58,-133.3"/>
</g>
<!-- AssignmentInfoComponent -->
<g id="node4" class="node">
<title>AssignmentInfoComponent</title>
<polygon fill="#ffffb3" stroke="black" points="3192.55,-84.8 3021.45,-84.8 3021.45,-48.8 3192.55,-48.8 3192.55,-84.8"/>
<text text-anchor="middle" x="3107" y="-62.6" font-family="Times,serif" font-size="14.00">AssignmentInfoComponent</text>
</g>
<!-- AssignmentInfoComponent&#45;&gt;SystemModule -->
<g id="edge4" class="edge">
<title>AssignmentInfoComponent&#45;&gt;SystemModule</title>
<path fill="none" stroke="black" d="M3107,-85.11C3107,-104.95 3107,-133.8 3107,-133.8 3107,-133.8 1946.53,-133.8 1946.53,-133.8"/>
<polygon fill="black" stroke="black" points="1946.53,-130.3 1936.53,-133.8 1946.52,-137.3 1946.53,-130.3"/>
</g>
<!-- AssingmentIngoPageComponent -->
<g id="node5" class="node">
<title>AssingmentIngoPageComponent</title>
<polygon fill="#ffffb3" stroke="black" points="3003.6,-84.8 2802.4,-84.8 2802.4,-48.8 3003.6,-48.8 3003.6,-84.8"/>
<text text-anchor="middle" x="2903" y="-62.6" font-family="Times,serif" font-size="14.00">AssingmentIngoPageComponent</text>
</g>
<!-- AssingmentIngoPageComponent&#45;&gt;SystemModule -->
<g id="edge5" class="edge">
<title>AssingmentIngoPageComponent&#45;&gt;SystemModule</title>
<path fill="none" stroke="black" d="M2903,-84.97C2903,-103.89 2903,-130.8 2903,-130.8 2903,-130.8 1946.43,-130.8 1946.43,-130.8"/>
<polygon fill="black" stroke="black" points="1946.43,-127.3 1936.43,-130.8 1946.43,-134.3 1946.43,-127.3"/>
</g>
<!-- AssingmentsPageComponent -->
<g id="node6" class="node">
<title>AssingmentsPageComponent</title>
<polygon fill="#ffffb3" stroke="black" points="2784.38,-84.8 2603.62,-84.8 2603.62,-48.8 2784.38,-48.8 2784.38,-84.8"/>
<text text-anchor="middle" x="2694" y="-62.6" font-family="Times,serif" font-size="14.00">AssingmentsPageComponent</text>
</g>
<!-- AssingmentsPageComponent&#45;&gt;SystemModule -->
<g id="edge6" class="edge">
<title>AssingmentsPageComponent&#45;&gt;SystemModule</title>
<path fill="none" stroke="black" d="M2694,-85.1C2694,-103.07 2694,-127.8 2694,-127.8 2694,-127.8 1946.54,-127.8 1946.54,-127.8"/>
<polygon fill="black" stroke="black" points="1946.54,-124.3 1936.54,-127.8 1946.54,-131.3 1946.54,-124.3"/>
</g>
<!-- DialogAddTaskComponent -->
<g id="node7" class="node">
<title>DialogAddTaskComponent</title>
<polygon fill="#ffffb3" stroke="black" points="2585.26,-84.8 2414.74,-84.8 2414.74,-48.8 2585.26,-48.8 2585.26,-84.8"/>
<text text-anchor="middle" x="2500" y="-62.6" font-family="Times,serif" font-size="14.00">DialogAddTaskComponent</text>
</g>
<!-- DialogAddTaskComponent&#45;&gt;SystemModule -->
<g id="edge7" class="edge">
<title>DialogAddTaskComponent&#45;&gt;SystemModule</title>
<path fill="none" stroke="black" d="M2500,-84.84C2500,-101.53 2500,-123.8 2500,-123.8 2500,-123.8 1946.51,-123.8 1946.51,-123.8"/>
<polygon fill="black" stroke="black" points="1946.51,-120.3 1936.51,-123.8 1946.51,-127.3 1946.51,-120.3"/>
</g>
<!-- EditProfilePageComponent -->
<g id="node8" class="node">
<title>EditProfilePageComponent</title>
<polygon fill="#ffffb3" stroke="black" points="2396.98,-84.8 2227.02,-84.8 2227.02,-48.8 2396.98,-48.8 2396.98,-84.8"/>
<text text-anchor="middle" x="2312" y="-62.6" font-family="Times,serif" font-size="14.00">EditProfilePageComponent</text>
</g>
<!-- EditProfilePageComponent&#45;&gt;SystemModule -->
<g id="edge8" class="edge">
<title>EditProfilePageComponent&#45;&gt;SystemModule</title>
<path fill="none" stroke="black" d="M2312,-85.08C2312,-100.75 2312,-120.8 2312,-120.8 2312,-120.8 1946.54,-120.8 1946.54,-120.8"/>
<polygon fill="black" stroke="black" points="1946.54,-117.3 1936.54,-120.8 1946.54,-124.3 1946.54,-117.3"/>
</g>
<!-- GroupsComponent -->
<g id="node9" class="node">
<title>GroupsComponent</title>
<polygon fill="#ffffb3" stroke="black" points="2209.05,-84.8 2086.95,-84.8 2086.95,-48.8 2209.05,-48.8 2209.05,-84.8"/>
<text text-anchor="middle" x="2148" y="-62.6" font-family="Times,serif" font-size="14.00">GroupsComponent</text>
</g>
<!-- GroupsComponent&#45;&gt;SystemModule -->
<g id="edge9" class="edge">
<title>GroupsComponent&#45;&gt;SystemModule</title>
<path fill="none" stroke="black" d="M2148,-84.92C2148,-99.58 2148,-117.8 2148,-117.8 2148,-117.8 1946.52,-117.8 1946.52,-117.8"/>
<polygon fill="black" stroke="black" points="1946.52,-114.3 1936.52,-117.8 1946.52,-121.3 1946.52,-114.3"/>
</g>
<!-- LocalizationPageComponent -->
<g id="node10" class="node">
<title>LocalizationPageComponent</title>
<polygon fill="#ffffb3" stroke="black" points="2068.01,-84.8 1889.99,-84.8 1889.99,-48.8 2068.01,-48.8 2068.01,-84.8"/>
<text text-anchor="middle" x="1979" y="-62.6" font-family="Times,serif" font-size="14.00">LocalizationPageComponent</text>
</g>
<!-- LocalizationPageComponent&#45;&gt;SystemModule -->
<g id="edge10" class="edge">
<title>LocalizationPageComponent&#45;&gt;SystemModule</title>
<path fill="none" stroke="black" d="M1913.07,-84.91C1913.07,-84.91 1913.07,-103.79 1913.07,-103.79"/>
<polygon fill="black" stroke="black" points="1909.57,-103.79 1913.07,-113.79 1916.57,-103.79 1909.57,-103.79"/>
</g>
<!-- StepInfoPageComponent -->
<g id="node11" class="node">
<title>StepInfoPageComponent</title>
<polygon fill="#ffffb3" stroke="black" points="1871.26,-84.8 1714.74,-84.8 1714.74,-48.8 1871.26,-48.8 1871.26,-84.8"/>
<text text-anchor="middle" x="1793" y="-62.6" font-family="Times,serif" font-size="14.00">StepInfoPageComponent</text>
</g>
<!-- StepInfoPageComponent&#45;&gt;SystemModule -->
<g id="edge11" class="edge">
<title>StepInfoPageComponent&#45;&gt;SystemModule</title>
<path fill="none" stroke="black" d="M1853.49,-84.91C1853.49,-84.91 1853.49,-103.79 1853.49,-103.79"/>
<polygon fill="black" stroke="black" points="1849.99,-103.79 1853.49,-113.79 1856.99,-103.79 1849.99,-103.79"/>
</g>
<!-- StepPhotoComponent -->
<g id="node12" class="node">
<title>StepPhotoComponent</title>
<polygon fill="#ffffb3" stroke="black" points="1696.4,-84.8 1557.6,-84.8 1557.6,-48.8 1696.4,-48.8 1696.4,-84.8"/>
<text text-anchor="middle" x="1627" y="-62.6" font-family="Times,serif" font-size="14.00">StepPhotoComponent</text>
</g>
<!-- StepPhotoComponent&#45;&gt;SystemModule -->
<g id="edge12" class="edge">
<title>StepPhotoComponent&#45;&gt;SystemModule</title>
<path fill="none" stroke="black" d="M1627,-84.92C1627,-99.58 1627,-117.8 1627,-117.8 1627,-117.8 1825.45,-117.8 1825.45,-117.8"/>
<polygon fill="black" stroke="black" points="1825.45,-121.3 1835.45,-117.8 1825.45,-114.3 1825.45,-121.3"/>
</g>
<!-- SystemComponent -->
<g id="node13" class="node">
<title>SystemComponent</title>
<polygon fill="#ffffb3" stroke="black" points="1539.06,-84.8 1416.94,-84.8 1416.94,-48.8 1539.06,-48.8 1539.06,-84.8"/>
<text text-anchor="middle" x="1478" y="-62.6" font-family="Times,serif" font-size="14.00">SystemComponent</text>
</g>
<!-- SystemComponent&#45;&gt;SystemModule -->
<g id="edge13" class="edge">
<title>SystemComponent&#45;&gt;SystemModule</title>
<path fill="none" stroke="black" d="M1478,-85.08C1478,-100.75 1478,-120.8 1478,-120.8 1478,-120.8 1825.56,-120.8 1825.56,-120.8"/>
<polygon fill="black" stroke="black" points="1825.56,-124.3 1835.56,-120.8 1825.56,-117.3 1825.56,-124.3"/>
</g>
<!-- TaskInfoPageComponent -->
<g id="node14" class="node">
<title>TaskInfoPageComponent</title>
<polygon fill="#ffffb3" stroke="black" points="1398.58,-84.8 1239.42,-84.8 1239.42,-48.8 1398.58,-48.8 1398.58,-84.8"/>
<text text-anchor="middle" x="1319" y="-62.6" font-family="Times,serif" font-size="14.00">TaskInfoPageComponent</text>
</g>
<!-- TaskInfoPageComponent&#45;&gt;SystemModule -->
<g id="edge14" class="edge">
<title>TaskInfoPageComponent&#45;&gt;SystemModule</title>
<path fill="none" stroke="black" d="M1319,-84.84C1319,-101.53 1319,-123.8 1319,-123.8 1319,-123.8 1825.68,-123.8 1825.68,-123.8"/>
<polygon fill="black" stroke="black" points="1825.68,-127.3 1835.68,-123.8 1825.68,-120.3 1825.68,-127.3"/>
</g>
<!-- TasksPageComponent -->
<g id="node15" class="node">
<title>TasksPageComponent</title>
<polygon fill="#ffffb3" stroke="black" points="1221.71,-84.8 1080.29,-84.8 1080.29,-48.8 1221.71,-48.8 1221.71,-84.8"/>
<text text-anchor="middle" x="1151" y="-62.6" font-family="Times,serif" font-size="14.00">TasksPageComponent</text>
</g>
<!-- TasksPageComponent&#45;&gt;SystemModule -->
<g id="edge15" class="edge">
<title>TasksPageComponent&#45;&gt;SystemModule</title>
<path fill="none" stroke="black" d="M1151,-85.1C1151,-103.07 1151,-127.8 1151,-127.8 1151,-127.8 1825.48,-127.8 1825.48,-127.8"/>
<polygon fill="black" stroke="black" points="1825.48,-131.3 1835.48,-127.8 1825.48,-124.3 1825.48,-131.3"/>
</g>
<!-- UserActivityComponent -->
<g id="node16" class="node">
<title>UserActivityComponent</title>
<polygon fill="#ffffb3" stroke="black" points="1062.65,-84.8 909.35,-84.8 909.35,-48.8 1062.65,-48.8 1062.65,-84.8"/>
<text text-anchor="middle" x="986" y="-62.6" font-family="Times,serif" font-size="14.00">UserActivityComponent</text>
</g>
<!-- UserActivityComponent&#45;&gt;SystemModule -->
<g id="edge16" class="edge">
<title>UserActivityComponent&#45;&gt;SystemModule</title>
<path fill="none" stroke="black" d="M986,-84.97C986,-103.89 986,-130.8 986,-130.8 986,-130.8 1825.68,-130.8 1825.68,-130.8"/>
<polygon fill="black" stroke="black" points="1825.68,-134.3 1835.68,-130.8 1825.68,-127.3 1825.68,-134.3"/>
</g>
<!-- UserCalendarComponent -->
<g id="node17" class="node">
<title>UserCalendarComponent</title>
<polygon fill="#ffffb3" stroke="black" points="891.3,-84.8 732.7,-84.8 732.7,-48.8 891.3,-48.8 891.3,-84.8"/>
<text text-anchor="middle" x="812" y="-62.6" font-family="Times,serif" font-size="14.00">UserCalendarComponent</text>
</g>
<!-- UserCalendarComponent&#45;&gt;SystemModule -->
<g id="edge17" class="edge">
<title>UserCalendarComponent&#45;&gt;SystemModule</title>
<path fill="none" stroke="black" d="M812,-85.11C812,-104.95 812,-133.8 812,-133.8 812,-133.8 1825.64,-133.8 1825.64,-133.8"/>
<polygon fill="black" stroke="black" points="1825.64,-137.3 1835.64,-133.8 1825.64,-130.3 1825.64,-137.3"/>
</g>
<!-- UserDetailsComponent -->
<g id="node18" class="node">
<title>UserDetailsComponent</title>
<polygon fill="#ffffb3" stroke="black" points="714.92,-84.8 567.08,-84.8 567.08,-48.8 714.92,-48.8 714.92,-84.8"/>
<text text-anchor="middle" x="641" y="-62.6" font-family="Times,serif" font-size="14.00">UserDetailsComponent</text>
</g>
<!-- UserDetailsComponent&#45;&gt;SystemModule -->
<g id="edge18" class="edge">
<title>UserDetailsComponent&#45;&gt;SystemModule</title>
<path fill="none" stroke="black" d="M641,-84.83C641,-105.57 641,-136.8 641,-136.8 641,-136.8 1825.65,-136.8 1825.65,-136.8"/>
<polygon fill="black" stroke="black" points="1825.65,-140.3 1835.65,-136.8 1825.65,-133.3 1825.65,-140.3"/>
</g>
<!-- UserInfoPageComponent -->
<g id="node19" class="node">
<title>UserInfoPageComponent</title>
<polygon fill="#ffffb3" stroke="black" points="549.3,-84.8 390.7,-84.8 390.7,-48.8 549.3,-48.8 549.3,-84.8"/>
<text text-anchor="middle" x="470" y="-62.6" font-family="Times,serif" font-size="14.00">UserInfoPageComponent</text>
</g>
<!-- UserInfoPageComponent&#45;&gt;SystemModule -->
<g id="edge19" class="edge">
<title>UserInfoPageComponent&#45;&gt;SystemModule</title>
<path fill="none" stroke="black" d="M470,-85.09C470,-107.01 470,-140.8 470,-140.8 470,-140.8 1825.6,-140.8 1825.6,-140.8"/>
<polygon fill="black" stroke="black" points="1825.6,-144.3 1835.6,-140.8 1825.6,-137.3 1825.6,-144.3"/>
</g>
<!-- UserOnboardingComponent -->
<g id="node20" class="node">
<title>UserOnboardingComponent</title>
<polygon fill="#ffffb3" stroke="black" points="373.14,-84.8 198.86,-84.8 198.86,-48.8 373.14,-48.8 373.14,-84.8"/>
<text text-anchor="middle" x="286" y="-62.6" font-family="Times,serif" font-size="14.00">UserOnboardingComponent</text>
</g>
<!-- UserOnboardingComponent&#45;&gt;SystemModule -->
<g id="edge20" class="edge">
<title>UserOnboardingComponent&#45;&gt;SystemModule</title>
<path fill="none" stroke="black" d="M286,-85.05C286,-107.82 286,-143.8 286,-143.8 286,-143.8 1825.47,-143.8 1825.47,-143.8"/>
<polygon fill="black" stroke="black" points="1825.47,-147.3 1835.47,-143.8 1825.47,-140.3 1825.47,-147.3"/>
</g>
<!-- WorkersPageComponent -->
<g id="node21" class="node">
<title>WorkersPageComponent</title>
<polygon fill="#ffffb3" stroke="black" points="180.25,-84.8 23.75,-84.8 23.75,-48.8 180.25,-48.8 180.25,-84.8"/>
<text text-anchor="middle" x="102" y="-62.6" font-family="Times,serif" font-size="14.00">WorkersPageComponent</text>
</g>
<!-- WorkersPageComponent&#45;&gt;SystemModule -->
<g id="edge21" class="edge">
<title>WorkersPageComponent&#45;&gt;SystemModule</title>
<path fill="none" stroke="black" d="M102,-84.95C102,-108.56 102,-146.8 102,-146.8 102,-146.8 1825.48,-146.8 1825.48,-146.8"/>
<polygon fill="black" stroke="black" points="1825.48,-150.3 1835.48,-146.8 1825.48,-143.3 1825.48,-150.3"/>
</g>
<!-- SystemRoutingModule -->
<g id="node23" class="node">
<title>SystemRoutingModule</title>
<polygon fill="#8dd3c7" stroke="black" points="3895.9,-84.8 3892.9,-88.8 3871.9,-88.8 3868.9,-84.8 3750.1,-84.8 3750.1,-48.8 3895.9,-48.8 3895.9,-84.8"/>
<text text-anchor="middle" x="3823" y="-62.6" font-family="Times,serif" font-size="14.00">SystemRoutingModule</text>
</g>
<!-- SystemRoutingModule&#45;&gt;SystemModule -->
<g id="edge22" class="edge">
<title>SystemRoutingModule&#45;&gt;SystemModule</title>
<path fill="none" stroke="black" d="M3823,-84.95C3823,-108.56 3823,-146.8 3823,-146.8 3823,-146.8 1946.32,-146.8 1946.32,-146.8"/>
<polygon fill="black" stroke="black" points="1946.32,-143.3 1936.32,-146.8 1946.32,-150.3 1946.32,-143.3"/>
</g>
</g>
</svg>
