<?xml version="1.0" encoding="UTF-8" standalone="no"?>
<!DOCTYPE svg PUBLIC "-//W3C//DTD SVG 1.1//EN"
 "http://www.w3.org/Graphics/SVG/1.1/DTD/svg11.dtd">
<!-- Generated by graphviz version 5.0.0 (20220707.1540)
 -->
<!-- Title: dependencies Pages: 1 -->
<svg width="4838pt" height="323pt"
 viewBox="0.00 0.00 4838.00 322.80" xmlns="http://www.w3.org/2000/svg" xmlns:xlink="http://www.w3.org/1999/xlink">
<g id="graph0" class="graph" transform="scale(1 1) rotate(0) translate(4 318.8)">
<title>dependencies</title>
<polygon fill="white" stroke="transparent" points="-4,4 -4,-318.8 4834,-318.8 4834,4 -4,4"/>
<text text-anchor="middle" x="2415" y="-8.2" font-family="sans-serif" font-size="14.00">dependencies</text>
<g id="clust1" class="cluster">
<title>cluster_AppModule</title>
<polygon fill="none" stroke="black" stroke-dasharray="1,5" points="1423,-108.8 1423,-306.8 2826,-306.8 2826,-108.8 1423,-108.8"/>
</g>
<g id="clust2" class="cluster">
<title>cluster_AppModule_declarations</title>
<polygon fill="none" stroke="black" points="2528,-116.8 2528,-168.8 2818,-168.8 2818,-116.8 2528,-116.8"/>
</g>
<g id="clust5" class="cluster">
<title>cluster_AppModule_imports</title>
<polygon fill="none" stroke="black" points="1573,-116.8 1573,-168.8 2520,-168.8 2520,-116.8 1573,-116.8"/>
</g>
<g id="clust7" class="cluster">
<title>cluster_AppModule_bootstrap</title>
<polygon fill="none" stroke="black" points="2197,-246.8 2197,-298.8 2321,-298.8 2321,-246.8 2197,-246.8"/>
</g>
<g id="clust8" class="cluster">
<title>cluster_AppModule_providers</title>
<polygon fill="none" stroke="black" points="1431,-116.8 1431,-168.8 1565,-168.8 1565,-116.8 1431,-116.8"/>
</g>
<g id="clust15" class="cluster">
<title>cluster_AuthModule</title>
<polygon fill="none" stroke="black" stroke-dasharray="1,5" points="8,-32.8 8,-100.8 910,-100.8 910,-32.8 8,-32.8"/>
</g>
<g id="clust16" class="cluster">
<title>cluster_AuthModule_declarations</title>
<polygon fill="none" stroke="black" points="289,-40.8 289,-92.8 902,-92.8 902,-40.8 289,-40.8"/>
</g>
<g id="clust21" class="cluster">
<title>cluster_AuthModule_imports</title>
<polygon fill="none" stroke="black" points="16,-40.8 16,-92.8 281,-92.8 281,-40.8 16,-40.8"/>
</g>
<g id="clust37" class="cluster">
<title>cluster_SystemModule</title>
<polygon fill="none" stroke="black" stroke-dasharray="1,5" points="918,-32.8 918,-100.8 4822,-100.8 4822,-32.8 918,-32.8"/>
</g>
<g id="clust38" class="cluster">
<title>cluster_SystemModule_declarations</title>
<polygon fill="none" stroke="black" points="1096,-40.8 1096,-92.8 4814,-92.8 4814,-40.8 1096,-40.8"/>
</g>
<g id="clust60" class="cluster">
<title>cluster_SystemModule_imports</title>
<polygon fill="none" stroke="black" points="926,-40.8 926,-92.8 1088,-92.8 1088,-40.8 926,-40.8"/>
</g>
<!-- AppComponent -->
<g id="node1" class="node">
<title>AppComponent</title>
<polygon fill="#ffffb3" stroke="black" points="2809.94,-160.8 2704.06,-160.8 2704.06,-124.8 2809.94,-124.8 2809.94,-160.8"/>
<text text-anchor="middle" x="2757" y="-138.6" font-family="Times,serif" font-size="14.00">AppComponent</text>
</g>
<!-- AppModule -->
<g id="node3" class="node">
<title>AppModule</title>
<polygon fill="#8dd3c7" stroke="black" points="2300.66,-225.8 2297.66,-229.8 2276.66,-229.8 2273.66,-225.8 2217.34,-225.8 2217.34,-189.8 2300.66,-189.8 2300.66,-225.8"/>
<text text-anchor="middle" x="2259" y="-203.6" font-family="Times,serif" font-size="14.00">AppModule</text>
</g>
<!-- AppComponent&#45;&gt;AppModule -->
<g id="edge1" class="edge">
<title>AppComponent&#45;&gt;AppModule</title>
<path fill="none" stroke="black" d="M2757,-161.09C2757,-183.01 2757,-216.8 2757,-216.8 2757,-216.8 2311.03,-216.8 2311.03,-216.8"/>
<polygon fill="black" stroke="black" points="2311.03,-213.3 2301.03,-216.8 2311.03,-220.3 2311.03,-213.3"/>
</g>
<!-- MainLayoutComponent -->
<g id="node2" class="node">
<title>MainLayoutComponent</title>
<polygon fill="#ffffb3" stroke="black" points="2686.04,-160.8 2535.96,-160.8 2535.96,-124.8 2686.04,-124.8 2686.04,-160.8"/>
<text text-anchor="middle" x="2611" y="-138.6" font-family="Times,serif" font-size="14.00">MainLayoutComponent</text>
</g>
<!-- MainLayoutComponent&#45;&gt;AppModule -->
<g id="edge2" class="edge">
<title>MainLayoutComponent&#45;&gt;AppModule</title>
<path fill="none" stroke="black" d="M2611,-160.91C2611,-180.14 2611,-207.8 2611,-207.8 2611,-207.8 2310.76,-207.8 2310.76,-207.8"/>
<polygon fill="black" stroke="black" points="2310.76,-204.3 2300.76,-207.8 2310.76,-211.3 2310.76,-204.3"/>
</g>
<!-- AppComponent  -->
<g id="node9" class="node">
<title>AppComponent </title>
<polygon fill="#80b1d3" stroke="black" points="2313.44,-290.8 2204.56,-290.8 2204.56,-254.8 2313.44,-254.8 2313.44,-290.8"/>
<text text-anchor="middle" x="2259" y="-268.6" font-family="Times,serif" font-size="14.00">AppComponent </text>
</g>
<!-- AppModule&#45;&gt;AppComponent  -->
<g id="edge8" class="edge">
<title>AppModule&#45;&gt;AppComponent </title>
<path fill="none" stroke="black" stroke-dasharray="1,5" d="M2259,-225.91C2259,-225.91 2259,-244.79 2259,-244.79"/>
<polygon fill="black" stroke="black" points="2255.5,-244.79 2259,-254.79 2262.5,-244.79 2255.5,-244.79"/>
</g>
<!-- AppRoutingModule -->
<g id="node4" class="node">
<title>AppRoutingModule</title>
<polygon fill="#8dd3c7" stroke="black" points="2512.28,-160.8 2509.28,-164.8 2488.28,-164.8 2485.28,-160.8 2383.72,-160.8 2383.72,-124.8 2512.28,-124.8 2512.28,-160.8"/>
<text text-anchor="middle" x="2448" y="-138.6" font-family="Times,serif" font-size="14.00">AppRoutingModule</text>
</g>
<!-- AppRoutingModule&#45;&gt;AppModule -->
<g id="edge3" class="edge">
<title>AppRoutingModule&#45;&gt;AppModule</title>
<path fill="none" stroke="black" d="M2448,-160.83C2448,-177.2 2448,-198.8 2448,-198.8 2448,-198.8 2310.95,-198.8 2310.95,-198.8"/>
<polygon fill="black" stroke="black" points="2310.95,-195.3 2300.95,-198.8 2310.95,-202.3 2310.95,-195.3"/>
</g>
<!-- AuthModule -->
<g id="node5" class="node">
<title>AuthModule</title>
<polygon fill="#8dd3c7" stroke="black" points="2246.55,-160.8 2243.55,-164.8 2222.55,-164.8 2219.55,-160.8 2159.45,-160.8 2159.45,-124.8 2246.55,-124.8 2246.55,-160.8"/>
<text text-anchor="middle" x="2203" y="-138.6" font-family="Times,serif" font-size="14.00">AuthModule</text>
</g>
<!-- AuthModule&#45;&gt;AppModule -->
<g id="edge4" class="edge">
<title>AuthModule&#45;&gt;AppModule</title>
<path fill="none" stroke="black" d="M2231.97,-160.91C2231.97,-160.91 2231.97,-179.79 2231.97,-179.79"/>
<polygon fill="black" stroke="black" points="2228.47,-179.79 2231.97,-189.79 2235.47,-179.79 2228.47,-179.79"/>
</g>
<!-- SystemModule -->
<g id="node6" class="node">
<title>SystemModule</title>
<polygon fill="#8dd3c7" stroke="black" points="2365.28,-160.8 2362.28,-164.8 2341.28,-164.8 2338.28,-160.8 2264.72,-160.8 2264.72,-124.8 2365.28,-124.8 2365.28,-160.8"/>
<text text-anchor="middle" x="2315" y="-138.6" font-family="Times,serif" font-size="14.00">SystemModule</text>
</g>
<!-- SystemModule&#45;&gt;AppModule -->
<g id="edge5" class="edge">
<title>SystemModule&#45;&gt;AppModule</title>
<path fill="none" stroke="black" d="M2282.72,-160.91C2282.72,-160.91 2282.72,-179.79 2282.72,-179.79"/>
<polygon fill="black" stroke="black" points="2279.22,-179.79 2282.72,-189.79 2286.22,-179.79 2279.22,-179.79"/>
</g>
<!-- provideFirebaseApp(() =&gt; initializeApp(environment -->
<g id="node7" class="node">
<title>provideFirebaseApp(() =&gt; initializeApp(environment</title>
<polygon fill="#8dd3c7" stroke="black" points="2140.59,-160.8 2137.59,-164.8 2116.59,-164.8 2113.59,-160.8 1825.41,-160.8 1825.41,-124.8 2140.59,-124.8 2140.59,-160.8"/>
<text text-anchor="middle" x="1983" y="-138.6" font-family="Times,serif" font-size="14.00">provideFirebaseApp(() =&gt; initializeApp(environment</text>
</g>
<!-- provideFirebaseApp(() =&gt; initializeApp(environment&#45;&gt;AppModule -->
<g id="edge6" class="edge">
<title>provideFirebaseApp(() =&gt; initializeApp(environment&#45;&gt;AppModule</title>
<path fill="none" stroke="black" d="M1983,-160.83C1983,-177.2 1983,-198.8 1983,-198.8 1983,-198.8 2207.08,-198.8 2207.08,-198.8"/>
<polygon fill="black" stroke="black" points="2207.08,-202.3 2217.08,-198.8 2207.08,-195.3 2207.08,-202.3"/>
</g>
<!-- provideFirestore(() =&gt; getFirestore()) -->
<g id="node8" class="node">
<title>provideFirestore(() =&gt; getFirestore())</title>
<polygon fill="#8dd3c7" stroke="black" points="1807.16,-160.8 1804.16,-164.8 1783.16,-164.8 1780.16,-160.8 1580.84,-160.8 1580.84,-124.8 1807.16,-124.8 1807.16,-160.8"/>
<text text-anchor="middle" x="1694" y="-138.6" font-family="Times,serif" font-size="14.00">provideFirestore(() =&gt; getFirestore())</text>
</g>
<!-- provideFirestore(() =&gt; getFirestore())&#45;&gt;AppModule -->
<g id="edge7" class="edge">
<title>provideFirestore(() =&gt; getFirestore())&#45;&gt;AppModule</title>
<path fill="none" stroke="black" d="M1694,-160.91C1694,-180.14 1694,-207.8 1694,-207.8 1694,-207.8 2206.99,-207.8 2206.99,-207.8"/>
<polygon fill="black" stroke="black" points="2206.99,-211.3 2216.99,-207.8 2206.99,-204.3 2206.99,-211.3"/>
</g>
<!-- AuthService -->
<g id="node10" class="node">
<title>AuthService</title>
<ellipse fill="#fdb462" stroke="black" cx="1498" cy="-142.8" rx="59.11" ry="18"/>
<text text-anchor="middle" x="1498" y="-138.6" font-family="Times,serif" font-size="14.00">AuthService</text>
</g>
<!-- AuthService&#45;&gt;AppModule -->
<g id="edge9" class="edge">
<title>AuthService&#45;&gt;AppModule</title>
<path fill="none" stroke="black" d="M1498,-161.09C1498,-183.01 1498,-216.8 1498,-216.8 1498,-216.8 2207.27,-216.8 2207.27,-216.8"/>
<polygon fill="black" stroke="black" points="2207.27,-220.3 2217.27,-216.8 2207.27,-213.3 2207.27,-220.3"/>
</g>
<!-- AuthComponent -->
<g id="node11" class="node">
<title>AuthComponent</title>
<polygon fill="#ffffb3" stroke="black" points="893.83,-84.8 784.17,-84.8 784.17,-48.8 893.83,-48.8 893.83,-84.8"/>
<text text-anchor="middle" x="839" y="-62.6" font-family="Times,serif" font-size="14.00">AuthComponent</text>
</g>
<!-- AuthComponent&#45;&gt;AuthModule -->
<g id="edge10" class="edge">
<title>AuthComponent&#45;&gt;AuthModule</title>
<path fill="none" stroke="black" d="M839,-84.94C839,-91.26 839,-96.8 839,-96.8 839,-96.8 2234.44,-96.8 2234.44,-96.8 2234.44,-96.8 2234.44,-114.62 2234.44,-114.62"/>
<polygon fill="black" stroke="black" points="2230.94,-114.62 2234.44,-124.62 2237.94,-114.62 2230.94,-114.62"/>
</g>
<!-- CompanyLoginComponent -->
<g id="node12" class="node">
<title>CompanyLoginComponent</title>
<polygon fill="#ffffb3" stroke="black" points="766.71,-84.8 597.29,-84.8 597.29,-48.8 766.71,-48.8 766.71,-84.8"/>
<text text-anchor="middle" x="682" y="-62.6" font-family="Times,serif" font-size="14.00">CompanyLoginComponent</text>
</g>
<!-- CompanyLoginComponent&#45;&gt;AuthModule -->
<g id="edge11" class="edge">
<title>CompanyLoginComponent&#45;&gt;AuthModule</title>
<path fill="none" stroke="black" d="M682,-85.04C682,-92.23 682,-98.8 682,-98.8 682,-98.8 2222.1,-98.8 2222.1,-98.8 2222.1,-98.8 2222.1,-114.65 2222.1,-114.65"/>
<polygon fill="black" stroke="black" points="2218.6,-114.65 2222.1,-124.65 2225.6,-114.65 2218.6,-114.65"/>
</g>
<!-- LoginComponent -->
<g id="node13" class="node">
<title>LoginComponent</title>
<polygon fill="#ffffb3" stroke="black" points="579.27,-84.8 464.73,-84.8 464.73,-48.8 579.27,-48.8 579.27,-84.8"/>
<text text-anchor="middle" x="522" y="-62.6" font-family="Times,serif" font-size="14.00">LoginComponent</text>
</g>
<!-- LoginComponent&#45;&gt;AuthModule -->
<g id="edge12" class="edge">
<title>LoginComponent&#45;&gt;AuthModule</title>
<path fill="none" stroke="black" d="M522,-84.84C522,-92.55 522,-99.8 522,-99.8 522,-99.8 2209.76,-99.8 2209.76,-99.8 2209.76,-99.8 2209.76,-114.31 2209.76,-114.31"/>
<polygon fill="black" stroke="black" points="2206.26,-114.31 2209.76,-124.31 2213.26,-114.31 2206.26,-114.31"/>
</g>
<!-- RegistrationComponent -->
<g id="node14" class="node">
<title>RegistrationComponent</title>
<polygon fill="#ffffb3" stroke="black" points="446.77,-84.8 297.23,-84.8 297.23,-48.8 446.77,-48.8 446.77,-84.8"/>
<text text-anchor="middle" x="372" y="-62.6" font-family="Times,serif" font-size="14.00">RegistrationComponent</text>
</g>
<!-- RegistrationComponent&#45;&gt;AuthModule -->
<g id="edge13" class="edge">
<title>RegistrationComponent&#45;&gt;AuthModule</title>
<path fill="none" stroke="black" d="M372,-85.12C372,-93.59 372,-101.8 372,-101.8 372,-101.8 2197.42,-101.8 2197.42,-101.8 2197.42,-101.8 2197.42,-114.7 2197.42,-114.7"/>
<polygon fill="black" stroke="black" points="2193.92,-114.7 2197.42,-124.7 2200.92,-114.7 2193.92,-114.7"/>
</g>
<!-- AuthRoutingModule -->
<g id="node15" class="node">
<title>AuthRoutingModule</title>
<polygon fill="#8dd3c7" stroke="black" points="273.17,-84.8 270.17,-88.8 249.17,-88.8 246.17,-84.8 140.83,-84.8 140.83,-48.8 273.17,-48.8 273.17,-84.8"/>
<text text-anchor="middle" x="207" y="-62.6" font-family="Times,serif" font-size="14.00">AuthRoutingModule</text>
</g>
<!-- AuthRoutingModule&#45;&gt;AuthModule -->
<g id="edge14" class="edge">
<title>AuthRoutingModule&#45;&gt;AuthModule</title>
<path fill="none" stroke="black" d="M207,-85.22C207,-94.08 207,-102.8 207,-102.8 207,-102.8 2185.08,-102.8 2185.08,-102.8 2185.08,-102.8 2185.08,-114.67 2185.08,-114.67"/>
<polygon fill="black" stroke="black" points="2181.58,-114.67 2185.08,-124.67 2188.58,-114.67 2181.58,-114.67"/>
</g>
<!-- SharedModule -->
<g id="node16" class="node">
<title>SharedModule</title>
<polygon fill="#8dd3c7" stroke="black" points="122.43,-84.8 119.43,-88.8 98.43,-88.8 95.43,-84.8 23.57,-84.8 23.57,-48.8 122.43,-48.8 122.43,-84.8"/>
<text text-anchor="middle" x="73" y="-62.6" font-family="Times,serif" font-size="14.00">SharedModule</text>
</g>
<!-- SharedModule&#45;&gt;AuthModule -->
<g id="edge15" class="edge">
<title>SharedModule&#45;&gt;AuthModule</title>
<path fill="none" stroke="black" d="M73,-84.91C73,-94.7 73,-104.8 73,-104.8 73,-104.8 2172.74,-104.8 2172.74,-104.8 2172.74,-104.8 2172.74,-114.69 2172.74,-114.69"/>
<polygon fill="black" stroke="black" points="2169.24,-114.69 2172.74,-124.69 2176.24,-114.69 2169.24,-114.69"/>
</g>
<!-- AddStepPageComponent -->
<g id="node17" class="node">
<title>AddStepPageComponent</title>
<polygon fill="#ffffb3" stroke="black" points="4805.55,-84.8 4648.45,-84.8 4648.45,-48.8 4805.55,-48.8 4805.55,-84.8"/>
<text text-anchor="middle" x="4727" y="-62.6" font-family="Times,serif" font-size="14.00">AddStepPageComponent</text>
</g>
<!-- AddStepPageComponent&#45;&gt;SystemModule -->
<g id="edge16" class="edge">
<title>AddStepPageComponent&#45;&gt;SystemModule</title>
<path fill="none" stroke="black" d="M4727,-84.84C4727,-101.53 4727,-123.8 4727,-123.8 4727,-123.8 2362.33,-123.8 2362.33,-123.8 2362.33,-123.8 2362.33,-123.88 2362.33,-123.88"/>
<polygon fill="black" stroke="black" points="2358.83,-114.62 2362.33,-124.62 2365.83,-114.62 2358.83,-114.62"/>
</g>
<!-- AddWorkerPageComponent -->
<g id="node18" class="node">
<title>AddWorkerPageComponent</title>
<polygon fill="#ffffb3" stroke="black" points="4630.91,-84.8 4455.09,-84.8 4455.09,-48.8 4630.91,-48.8 4630.91,-84.8"/>
<text text-anchor="middle" x="4543" y="-62.6" font-family="Times,serif" font-size="14.00">AddWorkerPageComponent</text>
</g>
<!-- AddWorkerPageComponent&#45;&gt;SystemModule -->
<g id="edge17" class="edge">
<title>AddWorkerPageComponent&#45;&gt;SystemModule</title>
<path fill="none" stroke="black" d="M4543,-84.83C4543,-101.2 4543,-122.8 4543,-122.8 4543,-122.8 2359.27,-122.8 2359.27,-122.8 2359.27,-122.8 2359.27,-122.98 2359.27,-122.98"/>
<polygon fill="black" stroke="black" points="2355.77,-114.65 2359.27,-124.65 2362.77,-114.65 2355.77,-114.65"/>
</g>
<!-- AssignTaskComponent -->
<g id="node19" class="node">
<title>AssignTaskComponent</title>
<polygon fill="#ffffb3" stroke="black" points="4437.94,-84.8 4290.06,-84.8 4290.06,-48.8 4437.94,-48.8 4437.94,-84.8"/>
<text text-anchor="middle" x="4364" y="-62.6" font-family="Times,serif" font-size="14.00">AssignTaskComponent</text>
</g>
<!-- AssignTaskComponent&#45;&gt;SystemModule -->
<g id="edge18" class="edge">
<title>AssignTaskComponent&#45;&gt;SystemModule</title>
<path fill="none" stroke="black" d="M4364,-85.08C4364,-100.75 4364,-120.8 4364,-120.8 4364,-120.8 2356.2,-120.8 2356.2,-120.8 2356.2,-120.8 2356.2,-121.18 2356.2,-121.18"/>
<polygon fill="black" stroke="black" points="2352.7,-114.63 2356.2,-124.63 2359.7,-114.63 2352.7,-114.63"/>
</g>
<!-- AssignmentInfoComponent -->
<g id="node20" class="node">
<title>AssignmentInfoComponent</title>
<polygon fill="#ffffb3" stroke="black" points="4272.55,-84.8 4101.45,-84.8 4101.45,-48.8 4272.55,-48.8 4272.55,-84.8"/>
<text text-anchor="middle" x="4187" y="-62.6" font-family="Times,serif" font-size="14.00">AssignmentInfoComponent</text>
</g>
<!-- AssignmentInfoComponent&#45;&gt;SystemModule -->
<g id="edge19" class="edge">
<title>AssignmentInfoComponent&#45;&gt;SystemModule</title>
<path fill="none" stroke="black" d="M4187,-85.04C4187,-100.37 4187,-119.8 4187,-119.8 4187,-119.8 2353.14,-119.8 2353.14,-119.8 2353.14,-119.8 2353.14,-120.29 2353.14,-120.29"/>
<polygon fill="black" stroke="black" points="2349.64,-114.68 2353.14,-124.68 2356.64,-114.68 2349.64,-114.68"/>
</g>
<!-- AssingmentIngoPageComponent -->
<g id="node21" class="node">
<title>AssingmentIngoPageComponent</title>
<polygon fill="#ffffb3" stroke="black" points="4083.6,-84.8 3882.4,-84.8 3882.4,-48.8 4083.6,-48.8 4083.6,-84.8"/>
<text text-anchor="middle" x="3983" y="-62.6" font-family="Times,serif" font-size="14.00">AssingmentIngoPageComponent</text>
</g>
<!-- AssingmentIngoPageComponent&#45;&gt;SystemModule -->
<g id="edge20" class="edge">
<title>AssingmentIngoPageComponent&#45;&gt;SystemModule</title>
<path fill="none" stroke="black" d="M3983,-84.92C3983,-99.58 3983,-117.8 3983,-117.8 3983,-117.8 2350.08,-117.8 2350.08,-117.8 2350.08,-117.8 2350.08,-118.48 2350.08,-118.48"/>
<polygon fill="black" stroke="black" points="2346.58,-114.63 2350.08,-124.63 2353.58,-114.63 2346.58,-114.63"/>
</g>
<!-- AssingmentsPageComponent -->
<g id="node22" class="node">
<title>AssingmentsPageComponent</title>
<polygon fill="#ffffb3" stroke="black" points="3864.38,-84.8 3683.62,-84.8 3683.62,-48.8 3864.38,-48.8 3864.38,-84.8"/>
<text text-anchor="middle" x="3774" y="-62.6" font-family="Times,serif" font-size="14.00">AssingmentsPageComponent</text>
</g>
<!-- AssingmentsPageComponent&#45;&gt;SystemModule -->
<g id="edge21" class="edge">
<title>AssingmentsPageComponent&#45;&gt;SystemModule</title>
<path fill="none" stroke="black" d="M3774,-84.85C3774,-99.17 3774,-116.8 3774,-116.8 3774,-116.8 2347.02,-116.8 2347.02,-116.8 2347.02,-116.8 2347.02,-117.59 2347.02,-117.59"/>
<polygon fill="black" stroke="black" points="2343.52,-114.74 2347.02,-124.74 2350.52,-114.74 2343.52,-114.74"/>
</g>
<!-- DialogAddTaskComponent -->
<g id="node23" class="node">
<title>DialogAddTaskComponent</title>
<polygon fill="#ffffb3" stroke="black" points="3665.26,-84.8 3494.74,-84.8 3494.74,-48.8 3665.26,-48.8 3665.26,-84.8"/>
<text text-anchor="middle" x="3580" y="-62.6" font-family="Times,serif" font-size="14.00">DialogAddTaskComponent</text>
</g>
<!-- DialogAddTaskComponent&#45;&gt;SystemModule -->
<g id="edge22" class="edge">
<title>DialogAddTaskComponent&#45;&gt;SystemModule</title>
<path fill="none" stroke="black" d="M3580,-84.95C3580,-98.54 3580,-114.8 3580,-114.8 3580,-114.8 2343.96,-114.8 2343.96,-114.8 2343.96,-114.8 2343.96,-115.78 2343.96,-115.78"/>
<polygon fill="black" stroke="black" points="2340.46,-114.59 2343.96,-124.59 2347.46,-114.59 2340.46,-114.59"/>
</g>
<!-- EditProfilePageComponent -->
<g id="node24" class="node">
<title>EditProfilePageComponent</title>
<polygon fill="#ffffb3" stroke="black" points="3476.98,-84.8 3307.02,-84.8 3307.02,-48.8 3476.98,-48.8 3476.98,-84.8"/>
<text text-anchor="middle" x="3392" y="-62.6" font-family="Times,serif" font-size="14.00">EditProfilePageComponent</text>
</g>
<!-- EditProfilePageComponent&#45;&gt;SystemModule -->
<g id="edge23" class="edge">
<title>EditProfilePageComponent&#45;&gt;SystemModule</title>
<path fill="none" stroke="black" d="M3392,-84.84C3392,-98.09 3392,-113.8 3392,-113.8 3392,-113.8 2340.89,-113.8 2340.89,-113.8 2340.89,-113.8 2340.89,-114.88 2340.89,-114.88"/>
<polygon fill="black" stroke="black" points="2337.39,-114.6 2340.89,-124.6 2344.39,-114.6 2337.39,-114.6"/>
</g>
<!-- GroupsComponent -->
<g id="node25" class="node">
<title>GroupsComponent</title>
<polygon fill="#ffffb3" stroke="black" points="3289.05,-84.8 3166.95,-84.8 3166.95,-48.8 3289.05,-48.8 3289.05,-84.8"/>
<text text-anchor="middle" x="3228" y="-62.6" font-family="Times,serif" font-size="14.00">GroupsComponent</text>
</g>
<!-- GroupsComponent&#45;&gt;SystemModule -->
<g id="edge24" class="edge">
<title>GroupsComponent&#45;&gt;SystemModule</title>
<path fill="none" stroke="black" d="M3228,-84.84C3228,-97.36 3228,-111.8 3228,-111.8 3228,-111.8 2337.83,-111.8 2337.83,-111.8 2337.83,-111.8 2337.83,-114.77 2337.83,-114.77"/>
<polygon fill="black" stroke="black" points="2334.33,-114.77 2337.83,-124.77 2341.33,-114.77 2334.33,-114.77"/>
</g>
<!-- LocalizationPageComponent -->
<g id="node26" class="node">
<title>LocalizationPageComponent</title>
<polygon fill="#ffffb3" stroke="black" points="3148.01,-84.8 2969.99,-84.8 2969.99,-48.8 3148.01,-48.8 3148.01,-84.8"/>
<text text-anchor="middle" x="3059" y="-62.6" font-family="Times,serif" font-size="14.00">LocalizationPageComponent</text>
</g>
<!-- LocalizationPageComponent&#45;&gt;SystemModule -->
<g id="edge25" class="edge">
<title>LocalizationPageComponent&#45;&gt;SystemModule</title>
<path fill="none" stroke="black" d="M3059,-84.95C3059,-97.07 3059,-110.8 3059,-110.8 3059,-110.8 2334.77,-110.8 2334.77,-110.8 2334.77,-110.8 2334.77,-114.56 2334.77,-114.56"/>
<polygon fill="black" stroke="black" points="2331.27,-114.56 2334.77,-124.56 2338.27,-114.56 2331.27,-114.56"/>
</g>
<!-- StepInfoPageComponent -->
<g id="node27" class="node">
<title>StepInfoPageComponent</title>
<polygon fill="#ffffb3" stroke="black" points="2951.26,-84.8 2794.74,-84.8 2794.74,-48.8 2951.26,-48.8 2951.26,-84.8"/>
<text text-anchor="middle" x="2873" y="-62.6" font-family="Times,serif" font-size="14.00">StepInfoPageComponent</text>
</g>
<!-- StepInfoPageComponent&#45;&gt;SystemModule -->
<g id="edge26" class="edge">
<title>StepInfoPageComponent&#45;&gt;SystemModule</title>
<path fill="none" stroke="black" d="M2802.17,-84.86C2802.17,-96.24 2802.17,-108.8 2802.17,-108.8 2802.17,-108.8 2331.71,-108.8 2331.71,-108.8 2331.71,-108.8 2331.71,-114.61 2331.71,-114.61"/>
<polygon fill="black" stroke="black" points="2328.21,-114.61 2331.71,-124.61 2335.21,-114.61 2328.21,-114.61"/>
</g>
<!-- StepPhotoComponent -->
<g id="node28" class="node">
<title>StepPhotoComponent</title>
<polygon fill="#ffffb3" stroke="black" points="2776.4,-84.8 2637.6,-84.8 2637.6,-48.8 2776.4,-48.8 2776.4,-84.8"/>
<text text-anchor="middle" x="2707" y="-62.6" font-family="Times,serif" font-size="14.00">StepPhotoComponent</text>
</g>
<!-- StepPhotoComponent&#45;&gt;SystemModule -->
<g id="edge27" class="edge">
<title>StepPhotoComponent&#45;&gt;SystemModule</title>
<path fill="none" stroke="black" d="M2661.91,-84.9C2661.91,-95.89 2661.91,-107.8 2661.91,-107.8 2661.91,-107.8 2328.64,-107.8 2328.64,-107.8 2328.64,-107.8 2328.64,-114.48 2328.64,-114.48"/>
<polygon fill="black" stroke="black" points="2325.14,-114.48 2328.64,-124.48 2332.14,-114.48 2325.14,-114.48"/>
</g>
<!-- SystemComponent -->
<g id="node29" class="node">
<title>SystemComponent</title>
<polygon fill="#ffffb3" stroke="black" points="2619.06,-84.8 2496.94,-84.8 2496.94,-48.8 2619.06,-48.8 2619.06,-84.8"/>
<text text-anchor="middle" x="2558" y="-62.6" font-family="Times,serif" font-size="14.00">SystemComponent</text>
</g>
<!-- SystemComponent&#45;&gt;SystemModule -->
<g id="edge28" class="edge">
<title>SystemComponent&#45;&gt;SystemModule</title>
<path fill="none" stroke="black" d="M2504.56,-84.93C2504.56,-95.11 2504.56,-105.8 2504.56,-105.8 2504.56,-105.8 2325.58,-105.8 2325.58,-105.8 2325.58,-105.8 2325.58,-114.73 2325.58,-114.73"/>
<polygon fill="black" stroke="black" points="2322.08,-114.73 2325.58,-124.73 2329.08,-114.73 2322.08,-114.73"/>
</g>
<!-- TaskInfoPageComponent -->
<g id="node30" class="node">
<title>TaskInfoPageComponent</title>
<polygon fill="#ffffb3" stroke="black" points="2478.58,-84.8 2319.42,-84.8 2319.42,-48.8 2478.58,-48.8 2478.58,-84.8"/>
<text text-anchor="middle" x="2399" y="-62.6" font-family="Times,serif" font-size="14.00">TaskInfoPageComponent</text>
</g>
<!-- TaskInfoPageComponent&#45;&gt;SystemModule -->
<g id="edge29" class="edge">
<title>TaskInfoPageComponent&#45;&gt;SystemModule</title>
<path fill="none" stroke="black" d="M2322.52,-84.81C2322.52,-84.81 2322.52,-114.65 2322.52,-114.65"/>
<polygon fill="black" stroke="black" points="2319.02,-114.65 2322.52,-124.65 2326.02,-114.65 2319.02,-114.65"/>
</g>
<!-- TasksPageComponent -->
<g id="node31" class="node">
<title>TasksPageComponent</title>
<polygon fill="#ffffb3" stroke="black" points="2301.71,-84.8 2160.29,-84.8 2160.29,-48.8 2301.71,-48.8 2301.71,-84.8"/>
<text text-anchor="middle" x="2231" y="-62.6" font-family="Times,serif" font-size="14.00">TasksPageComponent</text>
</g>
<!-- TasksPageComponent&#45;&gt;SystemModule -->
<g id="edge30" class="edge">
<title>TasksPageComponent&#45;&gt;SystemModule</title>
<path fill="none" stroke="black" d="M2297.49,-84.81C2297.49,-84.81 2297.49,-114.65 2297.49,-114.65"/>
<polygon fill="black" stroke="black" points="2293.99,-114.65 2297.49,-124.65 2300.99,-114.65 2293.99,-114.65"/>
</g>
<!-- UserActivityComponent -->
<g id="node32" class="node">
<title>UserActivityComponent</title>
<polygon fill="#ffffb3" stroke="black" points="2142.65,-84.8 1989.35,-84.8 1989.35,-48.8 2142.65,-48.8 2142.65,-84.8"/>
<text text-anchor="middle" x="2066" y="-62.6" font-family="Times,serif" font-size="14.00">UserActivityComponent</text>
</g>
<!-- UserActivityComponent&#45;&gt;SystemModule -->
<g id="edge31" class="edge">
<title>UserActivityComponent&#45;&gt;SystemModule</title>
<path fill="none" stroke="black" d="M2064.99,-84.95C2064.99,-86.1 2064.99,-86.8 2064.99,-86.8 2064.99,-86.8 2293.38,-86.8 2293.38,-86.8 2293.38,-86.8 2293.38,-114.77 2293.38,-114.77"/>
<polygon fill="black" stroke="black" points="2289.88,-114.77 2293.38,-124.77 2296.88,-114.77 2289.88,-114.77"/>
</g>
<!-- UserCalendarComponent -->
<g id="node33" class="node">
<title>UserCalendarComponent</title>
<polygon fill="#ffffb3" stroke="black" points="1971.3,-84.8 1812.7,-84.8 1812.7,-48.8 1971.3,-48.8 1971.3,-84.8"/>
<text text-anchor="middle" x="1892" y="-62.6" font-family="Times,serif" font-size="14.00">UserCalendarComponent</text>
</g>
<!-- UserCalendarComponent&#45;&gt;SystemModule -->
<g id="edge32" class="edge">
<title>UserCalendarComponent&#45;&gt;SystemModule</title>
<path fill="none" stroke="black" d="M1898.18,-84.88C1898.18,-86.65 1898.18,-87.8 1898.18,-87.8 1898.18,-87.8 2289.27,-87.8 2289.27,-87.8 2289.27,-87.8 2289.27,-114.79 2289.27,-114.79"/>
<polygon fill="black" stroke="black" points="2285.77,-114.79 2289.27,-124.79 2292.77,-114.79 2285.77,-114.79"/>
</g>
<!-- UserDetailsComponent -->
<g id="node34" class="node">
<title>UserDetailsComponent</title>
<polygon fill="#ffffb3" stroke="black" points="1794.92,-84.8 1647.08,-84.8 1647.08,-48.8 1794.92,-48.8 1794.92,-84.8"/>
<text text-anchor="middle" x="1721" y="-62.6" font-family="Times,serif" font-size="14.00">UserDetailsComponent</text>
</g>
<!-- UserDetailsComponent&#45;&gt;SystemModule -->
<g id="edge33" class="edge">
<title>UserDetailsComponent&#45;&gt;SystemModule</title>
<path fill="none" stroke="black" d="M1721,-84.92C1721,-87.77 1721,-89.8 1721,-89.8 1721,-89.8 2285.16,-89.8 2285.16,-89.8 2285.16,-89.8 2285.16,-114.56 2285.16,-114.56"/>
<polygon fill="black" stroke="black" points="2281.66,-114.56 2285.16,-124.56 2288.66,-114.56 2281.66,-114.56"/>
</g>
<!-- UserInfoPageComponent -->
<g id="node35" class="node">
<title>UserInfoPageComponent</title>
<polygon fill="#ffffb3" stroke="black" points="1629.3,-84.8 1470.7,-84.8 1470.7,-48.8 1629.3,-48.8 1629.3,-84.8"/>
<text text-anchor="middle" x="1550" y="-62.6" font-family="Times,serif" font-size="14.00">UserInfoPageComponent</text>
</g>
<!-- UserInfoPageComponent&#45;&gt;SystemModule -->
<g id="edge34" class="edge">
<title>UserInfoPageComponent&#45;&gt;SystemModule</title>
<path fill="none" stroke="black" d="M1605.03,-84.99C1605.03,-88.34 1605.03,-90.8 1605.03,-90.8 1605.03,-90.8 2281.05,-90.8 2281.05,-90.8 2281.05,-90.8 2281.05,-114.61 2281.05,-114.61"/>
<polygon fill="black" stroke="black" points="2277.55,-114.61 2281.05,-124.61 2284.55,-114.61 2277.55,-114.61"/>
</g>
<!-- UserOnboardingComponent -->
<g id="node36" class="node">
<title>UserOnboardingComponent</title>
<polygon fill="#ffffb3" stroke="black" points="1453.14,-84.8 1278.86,-84.8 1278.86,-48.8 1453.14,-48.8 1453.14,-84.8"/>
<text text-anchor="middle" x="1366" y="-62.6" font-family="Times,serif" font-size="14.00">UserOnboardingComponent</text>
</g>
<!-- UserOnboardingComponent&#45;&gt;SystemModule -->
<g id="edge35" class="edge">
<title>UserOnboardingComponent&#45;&gt;SystemModule</title>
<path fill="none" stroke="black" d="M1446.01,-84.86C1446.01,-89.29 1446.01,-92.8 1446.01,-92.8 1446.01,-92.8 2276.94,-92.8 2276.94,-92.8 2276.94,-92.8 2276.94,-114.75 2276.94,-114.75"/>
<polygon fill="black" stroke="black" points="2273.44,-114.75 2276.94,-124.75 2280.44,-114.75 2273.44,-114.75"/>
</g>
<!-- WorkersPageComponent -->
<g id="node37" class="node">
<title>WorkersPageComponent</title>
<polygon fill="#ffffb3" stroke="black" points="1260.25,-84.8 1103.75,-84.8 1103.75,-48.8 1260.25,-48.8 1260.25,-84.8"/>
<text text-anchor="middle" x="1182" y="-62.6" font-family="Times,serif" font-size="14.00">WorkersPageComponent</text>
</g>
<!-- WorkersPageComponent&#45;&gt;SystemModule -->
<g id="edge36" class="edge">
<title>WorkersPageComponent&#45;&gt;SystemModule</title>
<path fill="none" stroke="black" d="M1182,-84.96C1182,-89.84 1182,-93.8 1182,-93.8 1182,-93.8 2272.83,-93.8 2272.83,-93.8 2272.83,-93.8 2272.83,-114.55 2272.83,-114.55"/>
<polygon fill="black" stroke="black" points="2269.33,-114.55 2272.83,-124.55 2276.33,-114.55 2269.33,-114.55"/>
</g>
<!-- SystemRoutingModule -->
<g id="node38" class="node">
<title>SystemRoutingModule</title>
<polygon fill="#8dd3c7" stroke="black" points="1079.9,-84.8 1076.9,-88.8 1055.9,-88.8 1052.9,-84.8 934.1,-84.8 934.1,-48.8 1079.9,-48.8 1079.9,-84.8"/>
<text text-anchor="middle" x="1007" y="-62.6" font-family="Times,serif" font-size="14.00">SystemRoutingModule</text>
</g>
<!-- SystemRoutingModule&#45;&gt;SystemModule -->
<g id="edge37" class="edge">
<title>SystemRoutingModule&#45;&gt;SystemModule</title>
<path fill="none" stroke="black" d="M1007,-85C1007,-90.83 1007,-95.8 1007,-95.8 1007,-95.8 2268.72,-95.8 2268.72,-95.8 2268.72,-95.8 2268.72,-114.76 2268.72,-114.76"/>
<polygon fill="black" stroke="black" points="2265.22,-114.76 2268.72,-124.76 2272.22,-114.76 2265.22,-114.76"/>
</g>
</g>
</svg>
