<?xml version="1.0" encoding="UTF-8" standalone="no"?>
<!DOCTYPE svg PUBLIC "-//W3C//DTD SVG 1.1//EN"
 "http://www.w3.org/Graphics/SVG/1.1/DTD/svg11.dtd">
<!-- Generated by graphviz version 5.0.0 (20220707.1540)
 -->
<!-- Title: dependencies Pages: 1 -->
<svg width="926pt" height="174pt"
 viewBox="0.00 0.00 926.00 173.80" xmlns="http://www.w3.org/2000/svg" xmlns:xlink="http://www.w3.org/1999/xlink">
<g id="graph0" class="graph" transform="scale(1 1) rotate(0) translate(4 169.8)">
<title>dependencies</title>
<polygon fill="white" stroke="transparent" points="-4,4 -4,-169.8 922,-169.8 922,4 -4,4"/>
<text text-anchor="middle" x="459" y="-8.2" font-family="sans-serif" font-size="14.00">dependencies</text>
<g id="clust1" class="cluster">
<title>cluster_AuthModule</title>
<polygon fill="none" stroke="black" stroke-dasharray="1,5" points="8,-32.8 8,-157.8 910,-157.8 910,-32.8 8,-32.8"/>
</g>
<g id="clust7" class="cluster">
<title>cluster_AuthModule_imports</title>
<polygon fill="none" stroke="black" points="637,-40.8 637,-92.8 902,-92.8 902,-40.8 637,-40.8"/>
</g>
<g id="clust2" class="cluster">
<title>cluster_AuthModule_declarations</title>
<polygon fill="none" stroke="black" points="16,-40.8 16,-92.8 629,-92.8 629,-40.8 16,-40.8"/>
</g>
<!-- AuthComponent -->
<g id="node1" class="node">
<title>AuthComponent</title>
<polygon fill="#ffffb3" stroke="black" points="620.83,-84.8 511.17,-84.8 511.17,-48.8 620.83,-48.8 620.83,-84.8"/>
<text text-anchor="middle" x="566" y="-62.6" font-family="Times,serif" font-size="14.00">AuthComponent</text>
</g>
<!-- AuthModule -->
<g id="node5" class="node">
<title>AuthModule</title>
<polygon fill="#8dd3c7" stroke="black" points="530.55,-149.8 527.55,-153.8 506.55,-153.8 503.55,-149.8 443.45,-149.8 443.45,-113.8 530.55,-113.8 530.55,-149.8"/>
<text text-anchor="middle" x="487" y="-127.6" font-family="Times,serif" font-size="14.00">AuthModule</text>
</g>
<!-- AuthComponent&#45;&gt;AuthModule -->
<g id="edge1" class="edge">
<title>AuthComponent&#45;&gt;AuthModule</title>
<path fill="none" stroke="black" d="M521.06,-84.91C521.06,-84.91 521.06,-103.79 521.06,-103.79"/>
<polygon fill="black" stroke="black" points="517.56,-103.79 521.06,-113.79 524.56,-103.79 517.56,-103.79"/>
</g>
<!-- CompanyLoginComponent -->
<g id="node2" class="node">
<title>CompanyLoginComponent</title>
<polygon fill="#ffffb3" stroke="black" points="493.71,-84.8 324.29,-84.8 324.29,-48.8 493.71,-48.8 493.71,-84.8"/>
<text text-anchor="middle" x="409" y="-62.6" font-family="Times,serif" font-size="14.00">CompanyLoginComponent</text>
</g>
<!-- CompanyLoginComponent&#45;&gt;AuthModule -->
<g id="edge2" class="edge">
<title>CompanyLoginComponent&#45;&gt;AuthModule</title>
<path fill="none" stroke="black" d="M468.42,-84.91C468.42,-84.91 468.42,-103.79 468.42,-103.79"/>
<polygon fill="black" stroke="black" points="464.92,-103.79 468.42,-113.79 471.92,-103.79 464.92,-103.79"/>
</g>
<!-- LoginComponent -->
<g id="node3" class="node">
<title>LoginComponent</title>
<polygon fill="#ffffb3" stroke="black" points="306.27,-84.8 191.73,-84.8 191.73,-48.8 306.27,-48.8 306.27,-84.8"/>
<text text-anchor="middle" x="249" y="-62.6" font-family="Times,serif" font-size="14.00">LoginComponent</text>
</g>
<!-- LoginComponent&#45;&gt;AuthModule -->
<g id="edge3" class="edge">
<title>LoginComponent&#45;&gt;AuthModule</title>
<path fill="none" stroke="black" d="M249,-84.82C249,-102.17 249,-125.8 249,-125.8 249,-125.8 433.35,-125.8 433.35,-125.8"/>
<polygon fill="black" stroke="black" points="433.35,-129.3 443.35,-125.8 433.35,-122.3 433.35,-129.3"/>
</g>
<!-- RegistrationComponent -->
<g id="node4" class="node">
<title>RegistrationComponent</title>
<polygon fill="#ffffb3" stroke="black" points="173.77,-84.8 24.23,-84.8 24.23,-48.8 173.77,-48.8 173.77,-84.8"/>
<text text-anchor="middle" x="99" y="-62.6" font-family="Times,serif" font-size="14.00">RegistrationComponent</text>
</g>
<!-- RegistrationComponent&#45;&gt;AuthModule -->
<g id="edge4" class="edge">
<title>RegistrationComponent&#45;&gt;AuthModule</title>
<path fill="none" stroke="black" d="M99,-85.08C99,-106.12 99,-137.8 99,-137.8 99,-137.8 433.25,-137.8 433.25,-137.8"/>
<polygon fill="black" stroke="black" points="433.25,-141.3 443.25,-137.8 433.25,-134.3 433.25,-141.3"/>
</g>
<!-- AuthRoutingModule -->
<g id="node6" class="node">
<title>AuthRoutingModule</title>
<polygon fill="#8dd3c7" stroke="black" points="894.17,-84.8 891.17,-88.8 870.17,-88.8 867.17,-84.8 761.83,-84.8 761.83,-48.8 894.17,-48.8 894.17,-84.8"/>
<text text-anchor="middle" x="828" y="-62.6" font-family="Times,serif" font-size="14.00">AuthRoutingModule</text>
</g>
<!-- AuthRoutingModule&#45;&gt;AuthModule -->
<g id="edge5" class="edge">
<title>AuthRoutingModule&#45;&gt;AuthModule</title>
<path fill="none" stroke="black" d="M828,-85.08C828,-106.12 828,-137.8 828,-137.8 828,-137.8 540.88,-137.8 540.88,-137.8"/>
<polygon fill="black" stroke="black" points="540.88,-134.3 530.88,-137.8 540.88,-141.3 540.88,-134.3"/>
</g>
<!-- SharedModule -->
<g id="node7" class="node">
<title>SharedModule</title>
<polygon fill="#8dd3c7" stroke="black" points="743.43,-84.8 740.43,-88.8 719.43,-88.8 716.43,-84.8 644.57,-84.8 644.57,-48.8 743.43,-48.8 743.43,-84.8"/>
<text text-anchor="middle" x="694" y="-62.6" font-family="Times,serif" font-size="14.00">SharedModule</text>
</g>
<!-- SharedModule&#45;&gt;AuthModule -->
<g id="edge6" class="edge">
<title>SharedModule&#45;&gt;AuthModule</title>
<path fill="none" stroke="black" d="M694,-84.82C694,-102.17 694,-125.8 694,-125.8 694,-125.8 540.65,-125.8 540.65,-125.8"/>
<polygon fill="black" stroke="black" points="540.65,-122.3 530.65,-125.8 540.65,-129.3 540.65,-122.3"/>
</g>
</g>
</svg>
