<?xml version="1.0" encoding="UTF-8" standalone="no"?>
<!DOCTYPE svg PUBLIC "-//W3C//DTD SVG 1.1//EN"
 "http://www.w3.org/Graphics/SVG/1.1/DTD/svg11.dtd">
<!-- Generated by graphviz version 5.0.0 (20220707.1540)
 -->
<!-- Title: dependencies Pages: 1 -->
<svg width="1426pt" height="247pt"
 viewBox="0.00 0.00 1426.00 246.80" xmlns="http://www.w3.org/2000/svg" xmlns:xlink="http://www.w3.org/1999/xlink">
<g id="graph0" class="graph" transform="scale(1 1) rotate(0) translate(4 242.8)">
<title>dependencies</title>
<polygon fill="white" stroke="transparent" points="-4,4 -4,-242.8 1422,-242.8 1422,4 -4,4"/>
<text text-anchor="middle" x="709" y="-8.2" font-family="sans-serif" font-size="14.00">dependencies</text>
<g id="clust1" class="cluster">
<title>cluster_AppModule</title>
<polygon fill="none" stroke="black" stroke-dasharray="1,5" points="8,-32.8 8,-230.8 1410,-230.8 1410,-32.8 8,-32.8"/>
</g>
<g id="clust2" class="cluster">
<title>cluster_AppModule_declarations</title>
<polygon fill="none" stroke="black" points="1112,-40.8 1112,-92.8 1402,-92.8 1402,-40.8 1112,-40.8"/>
</g>
<g id="clust5" class="cluster">
<title>cluster_AppModule_imports</title>
<polygon fill="none" stroke="black" points="158,-40.8 158,-92.8 1104,-92.8 1104,-40.8 158,-40.8"/>
</g>
<g id="clust7" class="cluster">
<title>cluster_AppModule_bootstrap</title>
<polygon fill="none" stroke="black" points="788,-170.8 788,-222.8 912,-222.8 912,-170.8 788,-170.8"/>
</g>
<g id="clust8" class="cluster">
<title>cluster_AppModule_providers</title>
<polygon fill="none" stroke="black" points="16,-40.8 16,-92.8 150,-92.8 150,-40.8 16,-40.8"/>
</g>
<!-- AppComponent -->
<g id="node1" class="node">
<title>AppComponent</title>
<polygon fill="#ffffb3" stroke="black" points="1393.94,-84.8 1288.06,-84.8 1288.06,-48.8 1393.94,-48.8 1393.94,-84.8"/>
<text text-anchor="middle" x="1341" y="-62.6" font-family="Times,serif" font-size="14.00">AppComponent</text>
</g>
<!-- AppModule -->
<g id="node3" class="node">
<title>AppModule</title>
<polygon fill="#8dd3c7" stroke="black" points="891.66,-149.8 888.66,-153.8 867.66,-153.8 864.66,-149.8 808.34,-149.8 808.34,-113.8 891.66,-113.8 891.66,-149.8"/>
<text text-anchor="middle" x="850" y="-127.6" font-family="Times,serif" font-size="14.00">AppModule</text>
</g>
<!-- AppComponent&#45;&gt;AppModule -->
<g id="edge1" class="edge">
<title>AppComponent&#45;&gt;AppModule</title>
<path fill="none" stroke="black" d="M1341,-85.09C1341,-107.01 1341,-140.8 1341,-140.8 1341,-140.8 901.86,-140.8 901.86,-140.8"/>
<polygon fill="black" stroke="black" points="901.86,-137.3 891.86,-140.8 901.86,-144.3 901.86,-137.3"/>
</g>
<!-- MainLayoutComponent -->
<g id="node2" class="node">
<title>MainLayoutComponent</title>
<polygon fill="#ffffb3" stroke="black" points="1270.04,-84.8 1119.96,-84.8 1119.96,-48.8 1270.04,-48.8 1270.04,-84.8"/>
<text text-anchor="middle" x="1195" y="-62.6" font-family="Times,serif" font-size="14.00">MainLayoutComponent</text>
</g>
<!-- MainLayoutComponent&#45;&gt;AppModule -->
<g id="edge2" class="edge">
<title>MainLayoutComponent&#45;&gt;AppModule</title>
<path fill="none" stroke="black" d="M1195,-84.91C1195,-104.14 1195,-131.8 1195,-131.8 1195,-131.8 901.96,-131.8 901.96,-131.8"/>
<polygon fill="black" stroke="black" points="901.96,-128.3 891.96,-131.8 901.96,-135.3 901.96,-128.3"/>
</g>
<!-- AppComponent  -->
<g id="node9" class="node">
<title>AppComponent </title>
<polygon fill="#80b1d3" stroke="black" points="904.44,-214.8 795.56,-214.8 795.56,-178.8 904.44,-178.8 904.44,-214.8"/>
<text text-anchor="middle" x="850" y="-192.6" font-family="Times,serif" font-size="14.00">AppComponent </text>
</g>
<!-- AppModule&#45;&gt;AppComponent  -->
<g id="edge8" class="edge">
<title>AppModule&#45;&gt;AppComponent </title>
<path fill="none" stroke="black" stroke-dasharray="1,5" d="M850,-149.91C850,-149.91 850,-168.79 850,-168.79"/>
<polygon fill="black" stroke="black" points="846.5,-168.79 850,-178.79 853.5,-168.79 846.5,-168.79"/>
</g>
<!-- AppRoutingModule -->
<g id="node4" class="node">
<title>AppRoutingModule</title>
<polygon fill="#8dd3c7" stroke="black" points="1096.28,-84.8 1093.28,-88.8 1072.28,-88.8 1069.28,-84.8 967.72,-84.8 967.72,-48.8 1096.28,-48.8 1096.28,-84.8"/>
<text text-anchor="middle" x="1032" y="-62.6" font-family="Times,serif" font-size="14.00">AppRoutingModule</text>
</g>
<!-- AppRoutingModule&#45;&gt;AppModule -->
<g id="edge3" class="edge">
<title>AppRoutingModule&#45;&gt;AppModule</title>
<path fill="none" stroke="black" d="M1032,-84.83C1032,-101.2 1032,-122.8 1032,-122.8 1032,-122.8 901.75,-122.8 901.75,-122.8"/>
<polygon fill="black" stroke="black" points="901.75,-119.3 891.75,-122.8 901.75,-126.3 901.75,-119.3"/>
</g>
<!-- AuthModule -->
<g id="node5" class="node">
<title>AuthModule</title>
<polygon fill="#8dd3c7" stroke="black" points="949.55,-84.8 946.55,-88.8 925.55,-88.8 922.55,-84.8 862.45,-84.8 862.45,-48.8 949.55,-48.8 949.55,-84.8"/>
<text text-anchor="middle" x="906" y="-62.6" font-family="Times,serif" font-size="14.00">AuthModule</text>
</g>
<!-- AuthModule&#45;&gt;AppModule -->
<g id="edge4" class="edge">
<title>AuthModule&#45;&gt;AppModule</title>
<path fill="none" stroke="black" d="M877.03,-84.91C877.03,-84.91 877.03,-103.79 877.03,-103.79"/>
<polygon fill="black" stroke="black" points="873.53,-103.79 877.03,-113.79 880.53,-103.79 873.53,-103.79"/>
</g>
<!-- SystemModule -->
<g id="node6" class="node">
<title>SystemModule</title>
<polygon fill="#8dd3c7" stroke="black" points="844.28,-84.8 841.28,-88.8 820.28,-88.8 817.28,-84.8 743.72,-84.8 743.72,-48.8 844.28,-48.8 844.28,-84.8"/>
<text text-anchor="middle" x="794" y="-62.6" font-family="Times,serif" font-size="14.00">SystemModule</text>
</g>
<!-- SystemModule&#45;&gt;AppModule -->
<g id="edge5" class="edge">
<title>SystemModule&#45;&gt;AppModule</title>
<path fill="none" stroke="black" d="M826.28,-84.91C826.28,-84.91 826.28,-103.79 826.28,-103.79"/>
<polygon fill="black" stroke="black" points="822.78,-103.79 826.28,-113.79 829.78,-103.79 822.78,-103.79"/>
</g>
<!-- provideFirebaseApp(() =&gt; initializeApp(environment -->
<g id="node7" class="node">
<title>provideFirebaseApp(() =&gt; initializeApp(environment</title>
<polygon fill="#8dd3c7" stroke="black" points="725.59,-84.8 722.59,-88.8 701.59,-88.8 698.59,-84.8 410.41,-84.8 410.41,-48.8 725.59,-48.8 725.59,-84.8"/>
<text text-anchor="middle" x="568" y="-62.6" font-family="Times,serif" font-size="14.00">provideFirebaseApp(() =&gt; initializeApp(environment</text>
</g>
<!-- provideFirebaseApp(() =&gt; initializeApp(environment&#45;&gt;AppModule -->
<g id="edge6" class="edge">
<title>provideFirebaseApp(() =&gt; initializeApp(environment&#45;&gt;AppModule</title>
<path fill="none" stroke="black" d="M568,-84.83C568,-101.2 568,-122.8 568,-122.8 568,-122.8 798.09,-122.8 798.09,-122.8"/>
<polygon fill="black" stroke="black" points="798.09,-126.3 808.09,-122.8 798.09,-119.3 798.09,-126.3"/>
</g>
<!-- provideFirestore(() =&gt; getFirestore()) -->
<g id="node8" class="node">
<title>provideFirestore(() =&gt; getFirestore())</title>
<polygon fill="#8dd3c7" stroke="black" points="392.16,-84.8 389.16,-88.8 368.16,-88.8 365.16,-84.8 165.84,-84.8 165.84,-48.8 392.16,-48.8 392.16,-84.8"/>
<text text-anchor="middle" x="279" y="-62.6" font-family="Times,serif" font-size="14.00">provideFirestore(() =&gt; getFirestore())</text>
</g>
<!-- provideFirestore(() =&gt; getFirestore())&#45;&gt;AppModule -->
<g id="edge7" class="edge">
<title>provideFirestore(() =&gt; getFirestore())&#45;&gt;AppModule</title>
<path fill="none" stroke="black" d="M279,-84.91C279,-104.14 279,-131.8 279,-131.8 279,-131.8 798.01,-131.8 798.01,-131.8"/>
<polygon fill="black" stroke="black" points="798.01,-135.3 808.01,-131.8 798.01,-128.3 798.01,-135.3"/>
</g>
<!-- AuthService -->
<g id="node10" class="node">
<title>AuthService</title>
<ellipse fill="#fdb462" stroke="black" cx="83" cy="-66.8" rx="59.11" ry="18"/>
<text text-anchor="middle" x="83" y="-62.6" font-family="Times,serif" font-size="14.00">AuthService</text>
</g>
<!-- AuthService&#45;&gt;AppModule -->
<g id="edge9" class="edge">
<title>AuthService&#45;&gt;AppModule</title>
<path fill="none" stroke="black" d="M83,-85.09C83,-107.01 83,-140.8 83,-140.8 83,-140.8 798.22,-140.8 798.22,-140.8"/>
<polygon fill="black" stroke="black" points="798.22,-144.3 808.22,-140.8 798.22,-137.3 798.22,-144.3"/>
</g>
</g>
</svg>
